<?xml version="1.0" encoding="UTF-8" standalone="no"?>
<svg
   xmlns:dc="http://purl.org/dc/elements/1.1/"
   xmlns:cc="http://creativecommons.org/ns#"
   xmlns:rdf="http://www.w3.org/1999/02/22-rdf-syntax-ns#"
   xmlns:svg="http://www.w3.org/2000/svg"
   xmlns="http://www.w3.org/2000/svg"
   xmlns:sodipodi="http://sodipodi.sourceforge.net/DTD/sodipodi-0.dtd"
   xmlns:inkscape="http://www.inkscape.org/namespaces/inkscape"
   viewBox="0 0 16 16"
   version="1.1"
   id="svg136"
   sodipodi:docname="WPFPageFunction.svg"
   inkscape:version="1.0.2 (e86c870879, 2021-01-15, custom)">
  <metadata
     id="metadata142">
    <rdf:RDF>
      <cc:Work
         rdf:about="">
        <dc:format>image/svg+xml</dc:format>
        <dc:type
           rdf:resource="http://purl.org/dc/dcmitype/StillImage" />
      </cc:Work>
    </rdf:RDF>
  </metadata>
  <defs
     id="defs140" />
  <sodipodi:namedview
     pagecolor="#ffffff"
     bordercolor="#666666"
     borderopacity="1"
     objecttolerance="10"
     gridtolerance="10"
     guidetolerance="10"
     inkscape:pageopacity="0"
     inkscape:pageshadow="2"
     inkscape:window-width="1722"
     inkscape:window-height="1045"
     id="namedview138"
     showgrid="false"
     inkscape:zoom="55.625"
     inkscape:cx="8"
     inkscape:cy="8.7191011"
     inkscape:window-x="2684"
     inkscape:window-y="0"
     inkscape:window-maximized="0"
     inkscape:current-layer="svg136" />
  <style
     id="style121">.st0{opacity:0}.st0,.st1{fill:#f6f6f6}.st2{fill:#424242}.st3{fill:#f0eff1}</style>
  <g
     id="icon_x5F_bg"
     transform="matrix(1.3998975,0,0,1.3998975,-0.39989749,-7.3992825)">
    <path
       class="st2"
       d="M 5.028,9.135 C 5.214,8.396 5.46,7.856 5.767,7.516 5.953,7.303 6.134,7.198 6.312,7.198 a 0.13,0.13 0 0 1 0.087,0.029 0.103,0.103 0 0 1 0.035,0.08 c 0,0.028 -0.025,0.084 -0.076,0.166 A 0.46,0.46 0 0 0 6.284,7.704 c 0,0.103 0.039,0.19 0.117,0.263 A 0.423,0.423 0 0 0 6.698,8.076 0.429,0.429 0 0 0 7.021,7.941 0.487,0.487 0 0 0 7.153,7.582 0.513,0.513 0 0 0 6.957,7.162 C 6.826,7.054 6.616,7 6.329,7 5.879,7 5.471,7.128 5.105,7.385 4.738,7.641 4.391,8.065 4.061,8.658 3.946,8.861 3.838,8.993 3.736,9.051 3.633,9.11 3.47,9.138 3.246,9.135 L 3.097,9.646 H 3.724 L 2.805,13.142 C 2.653,13.716 2.548,14.07 2.493,14.203 A 1.268,1.268 0 0 1 2.138,14.702 0.331,0.331 0 0 1 1.909,14.787 0.1,0.1 0 0 1 1.845,14.764 l -0.022,-0.03 c 0,-0.015 0.022,-0.044 0.068,-0.089 C 1.936,14.6 1.959,14.53 1.959,14.438 A 0.332,0.332 0 0 0 1.85,14.184 C 1.779,14.116 1.675,14.082 1.541,14.082 A 0.57,0.57 0 0 0 1.147,14.214 0.4,0.4 0 0 0 1,14.523 c 0,0.129 0.06,0.24 0.181,0.335 C 1.3,14.953 1.487,15 1.743,15 c 0.404,0 0.764,-0.102 1.077,-0.309 0.314,-0.205 0.587,-0.523 0.822,-0.95 0.232,-0.429 0.474,-1.12 0.72,-2.075 L 4.889,9.646 H 5.523 L 5.681,9.134 H 5.028 Z"
       id="path130" />
    <path
       class="st2"
       d="M 10.486,9.028 A 0.88,0.88 0 0 0 10.07,9.131 C 9.94,9.199 9.774,9.348 9.573,9.574 9.424,9.744 9.201,10.039 8.907,10.463 8.79,9.942 8.59,9.463 8.302,9.028 H 6.391 V 9.774 C 6.508,9.752 6.918,9.421 6.998,9.421 c 0.157,0 0.285,0.066 0.388,0.197 0.162,0.204 0.388,0.824 0.676,1.862 -0.226,0.295 -0.653,0.79 -0.737,0.88 -0.138,0.146 -0.253,0.24 -0.342,0.283 a 0.484,0.484 0 0 1 -0.234,0.054 c -0.065,0 -0.175,-0.034 -0.324,-0.106 A 0.694,0.694 0 0 0 6.151,12.522 0.522,0.522 0 0 0 5.772,12.668 0.482,0.482 0 0 0 5.625,13.035 c 0,0.139 0.045,0.252 0.138,0.342 0.09,0.086 0.215,0.13 0.371,0.13 0.149,0 0.291,-0.03 0.423,-0.091 0.132,-0.063 0.297,-0.192 0.497,-0.393 0.2,-0.199 0.748,-0.818 1.099,-1.253 0.135,0.413 0.396,1.019 0.494,1.206 0.099,0.187 0.212,0.322 0.34,0.406 a 0.868,0.868 0 0 0 0.479,0.124 0.982,0.982 0 0 0 0.566,-0.196 c 0.252,-0.168 0.511,-0.461 0.775,-0.875 l -0.161,-0.091 c -0.182,0.243 -0.315,0.398 -0.401,0.459 a 0.36,0.36 0 0 1 -0.204,0.058 C 9.949,12.861 9.857,12.803 9.767,12.688 9.614,12.497 9.268,11.662 9.013,10.787 9.241,10.395 9.433,10.141 9.588,10.021 A 0.584,0.584 0 0 1 9.949,9.89 c 0.047,0 0.135,0.016 0.258,0.049 0.126,0.033 0.235,0.051 0.331,0.051 A 0.453,0.453 0 0 0 10.87,9.857 0.47,0.47 0 0 0 11,9.514 0.471,0.471 0 0 0 10.868,9.16 C 10.78,9.071 10.652,9.028 10.486,9.028 Z"
       id="path132" />
  </g>
  <path
     style="fill:#f6f6f6;fill-opacity:1;stroke-width:0.0179775"
     d="M 8.4455407,1.4119382 C 7.3796987,1.4046345 6.3285305,1.8660963 5.5938743,2.6347857 5.0849528,3.1276825 4.7123427,3.7350611 4.3546272,4.3407878 4.3071507,4.4439054 4.1653472,4.3677102 4.075051,4.3997848 3.6335727,4.4224426 3.2539029,4.7767784 3.1651921,5.2045366 3.0729859,5.5830447 2.8774542,5.9770253 3.0121237,6.3700737 3.0929307,6.642432 3.2997668,6.8708582 3.5572331,6.9889747 3.1646157,8.4696908 2.7836493,9.955356 2.3801264,11.432058 1.6717701,11.175185 0.79853873,11.381511 0.33613062,11.992381 c -0.39141941,0.490009 -0.42971888,1.223788 -0.0846559,1.748736 0.30042587,0.484564 0.84734588,0.772594 1.40635538,0.827071 0.9978566,0.10282 2.0470873,-0.187721 2.8031601,-0.859305 0.7238109,-0.614216 1.198564,-1.463569 1.5264045,-2.342626 C 6.4708708,10.089803 6.7636464,8.7533167 7.1191144,7.4382607 7.1489906,7.3236462 7.1788667,7.2090316 7.208743,7.0944171 7.614901,7.1266677 8.038871,6.9158298 8.2147148,6.5406254 8.3375871,6.2590657 8.4082303,5.9562574 8.5007818,5.6635721 8.5899939,5.346782 8.5056831,4.9921753 8.2899579,4.7447331 8.898048,5.0357373 9.6883984,4.8974251 10.141959,4.3914677 10.506342,4.027474 10.651678,3.4902805 10.587008,2.9864115 10.521705,2.3234263 10.018496,1.7534368 9.3920645,1.5516503 9.0886887,1.4464993 8.7653778,1.4101669 8.4455407,1.4119382 Z"
     id="path170" />
  <path
     style="fill:#f6f6f6;fill-opacity:1;stroke-width:0.0179775"
     d="M 14.258638,4.247823 C 13.610864,4.2509397 13.0006,4.5723845 12.55756,5.032284 12.492055,5.0969079 12.428847,5.1638232 12.366854,5.2318118 12.178664,4.9161087 12.02909,4.5368475 11.681496,4.3645211 11.34027,4.1840723 10.943007,4.2695667 10.573806,4.2494382 9.8688991,4.2545247 9.1631121,4.239204 8.4587605,4.2571745 7.9686178,4.2876376 7.5574192,4.7307183 7.5495835,5.2197442 c 0.0047,0.3964251 -0.017057,0.7944847 0.013549,1.1899819 0.075486,0.448292 0.4816609,0.8111776 0.9376113,0.8253117 0.2892826,0.026859 0.5740385,-0.077302 0.8103523,-0.2389353 0.18976,0.4751124 0.334272,0.9665993 0.4829704,1.4556532 C 9.5442263,8.7525494 9.2966226,9.0567791 9.0198034,9.3334621 8.7297718,9.1919585 8.4074331,9.1292392 8.0854284,9.15 7.4042259,9.1693672 6.776709,9.6642797 6.5663272,10.307865 c -0.094559,0.315704 -0.090645,0.659083 -0.025027,0.98009 0.1503741,0.596263 0.6709078,1.067224 1.2742199,1.17444 0.6635485,0.13293 1.3665199,-0.08932 1.8865871,-0.509375 0.3720658,-0.289419 0.6836718,-0.645977 1.0007718,-0.992311 0.249669,0.570634 0.649879,1.114843 1.242022,1.359573 0.540224,0.233288 1.174614,0.227082 1.720759,0.01616 0.786851,-0.320265 1.361654,-0.993126 1.821859,-1.683739 0.253918,-0.346767 0.28193,-0.848269 0.02952,-1.2034551 C 15.203806,9.0036631 14.553505,8.7719333 14.054327,9.0395178 13.960298,9.0842544 13.87603,9.1477134 13.799333,9.2176967 13.611697,8.7660426 13.445282,8.3056892 13.296208,7.8399227 13.38303,7.7059493 13.477494,7.5695349 13.594347,7.4630618 14.107078,7.5977945 14.690163,7.6483428 15.163167,7.3610956 15.664441,7.0765569 16.011608,6.5132566 15.97524,5.929249 15.994613,5.5042426 15.851408,5.0704727 15.546067,4.7679775 15.218904,4.4156351 14.73431,4.2398809 14.258638,4.247823 Z"
     id="path172" />
  <g
     id="icon_x5F_bg-3"
     transform="matrix(1.3998975,0,0,1.3998975,-0.3998975,-7.3992825)">
    <path
       class="st2"
       d="M 5.028,9.135 C 5.214,8.396 5.46,7.856 5.767,7.516 5.953,7.303 6.134,7.198 6.312,7.198 a 0.13,0.13 0 0 1 0.087,0.029 0.103,0.103 0 0 1 0.035,0.08 c 0,0.028 -0.025,0.084 -0.076,0.166 A 0.46,0.46 0 0 0 6.284,7.704 c 0,0.103 0.039,0.19 0.117,0.263 A 0.423,0.423 0 0 0 6.698,8.076 0.429,0.429 0 0 0 7.021,7.941 0.487,0.487 0 0 0 7.153,7.582 0.513,0.513 0 0 0 6.957,7.162 C 6.826,7.054 6.616,7 6.329,7 5.879,7 5.471,7.128 5.105,7.385 4.738,7.641 4.391,8.065 4.061,8.658 3.946,8.861 3.838,8.993 3.736,9.051 3.633,9.11 3.47,9.138 3.246,9.135 L 3.097,9.646 H 3.724 L 2.805,13.142 C 2.653,13.716 2.548,14.07 2.493,14.203 A 1.268,1.268 0 0 1 2.138,14.702 0.331,0.331 0 0 1 1.909,14.787 0.1,0.1 0 0 1 1.845,14.764 l -0.022,-0.03 c 0,-0.015 0.022,-0.044 0.068,-0.089 C 1.936,14.6 1.959,14.53 1.959,14.438 A 0.332,0.332 0 0 0 1.85,14.184 C 1.779,14.116 1.675,14.082 1.541,14.082 A 0.57,0.57 0 0 0 1.147,14.214 0.4,0.4 0 0 0 1,14.523 c 0,0.129 0.06,0.24 0.181,0.335 C 1.3,14.953 1.487,15 1.743,15 c 0.404,0 0.764,-0.102 1.077,-0.309 0.314,-0.205 0.587,-0.523 0.822,-0.95 0.232,-0.429 0.474,-1.12 0.72,-2.075 L 4.889,9.646 H 5.523 L 5.681,9.134 H 5.028 Z"
       id="path130-9" />
    <path
       class="st2"
       d="M 10.486,9.028 A 0.88,0.88 0 0 0 10.07,9.131 C 9.94,9.199 9.774,9.348 9.573,9.574 9.424,9.744 9.201,10.039 8.907,10.463 8.79,9.942 8.59,9.463 8.302,9.028 H 6.391 V 9.774 C 6.508,9.752 6.918,9.421 6.998,9.421 c 0.157,0 0.285,0.066 0.388,0.197 0.162,0.204 0.388,0.824 0.676,1.862 -0.226,0.295 -0.653,0.79 -0.737,0.88 -0.138,0.146 -0.253,0.24 -0.342,0.283 a 0.484,0.484 0 0 1 -0.234,0.054 c -0.065,0 -0.175,-0.034 -0.324,-0.106 A 0.694,0.694 0 0 0 6.151,12.522 0.522,0.522 0 0 0 5.772,12.668 0.482,0.482 0 0 0 5.625,13.035 c 0,0.139 0.045,0.252 0.138,0.342 0.09,0.086 0.215,0.13 0.371,0.13 0.149,0 0.291,-0.03 0.423,-0.091 0.132,-0.063 0.297,-0.192 0.497,-0.393 0.2,-0.199 0.748,-0.818 1.099,-1.253 0.135,0.413 0.396,1.019 0.494,1.206 0.099,0.187 0.212,0.322 0.34,0.406 a 0.868,0.868 0 0 0 0.479,0.124 0.982,0.982 0 0 0 0.566,-0.196 c 0.252,-0.168 0.511,-0.461 0.775,-0.875 l -0.161,-0.091 c -0.182,0.243 -0.315,0.398 -0.401,0.459 a 0.36,0.36 0 0 1 -0.204,0.058 C 9.949,12.861 9.857,12.803 9.767,12.688 9.614,12.497 9.268,11.662 9.013,10.787 9.241,10.395 9.433,10.141 9.588,10.021 A 0.584,0.584 0 0 1 9.949,9.89 c 0.047,0 0.135,0.016 0.258,0.049 0.126,0.033 0.235,0.051 0.331,0.051 A 0.453,0.453 0 0 0 10.87,9.857 0.47,0.47 0 0 0 11,9.514 0.471,0.471 0 0 0 10.868,9.16 C 10.78,9.071 10.652,9.028 10.486,9.028 Z"
       id="path132-0" />
  </g>
</svg>
